<?xml version="1.0" standalone="no"?>
<!DOCTYPE svg PUBLIC "-//W3C//DTD SVG 20010904//EN"
 "http://www.w3.org/TR/2001/REC-SVG-20010904/DTD/svg10.dtd">
<svg version="1.0" xmlns="http://www.w3.org/2000/svg"
 width="940.000000pt" height="788.000000pt" viewBox="0 0 940.000000 788.000000"
 preserveAspectRatio="xMidYMid meet">

<g transform="translate(0.000000,788.000000) scale(0.100000,-0.100000)"
fill="#000000" stroke="none">
<path d="M4649 7315 c-89 -25 -152 -73 -192 -149 -18 -34 -21 -58 -21 -146 0
-69 4 -113 13 -130 30 -55 85 -112 134 -138 47 -24 62 -27 158 -27 96 0 110 3
161 28 60 31 74 48 59 76 -22 40 -38 44 -73 18 -78 -59 -213 -54 -288 10 -41
35 -65 72 -72 108 -3 19 4 20 242 25 l245 5 -1 55 c-4 136 -90 235 -236 269
-55 13 -68 13 -129 -4z m152 -90 c60 -26 101 -74 114 -132 l7 -33 -196 0
c-216 0 -210 -2 -182 63 16 38 62 85 103 103 39 17 114 17 154 -1z"/>
<path d="M5222 7258 c-5 -7 -15 -40 -21 -73 -16 -95 -32 -166 -47 -219 -8 -26
-14 -63 -14 -80 0 -18 -4 -36 -9 -42 -5 -5 -14 -38 -19 -74 -11 -72 -2 -90 45
-90 13 0 26 -1 30 -2 8 -4 20 35 38 127 42 208 58 251 110 291 34 25 46 28
110 28 l73 0 5 41 c4 25 1 43 -6 48 -7 4 -42 6 -79 4 -54 -3 -75 -10 -102 -31
l-35 -26 6 48 c5 49 5 49 -27 56 -44 8 -46 8 -58 -6z"/>
<path d="M3983 7240 c-72 -15 -163 -74 -163 -106 0 -10 -21 -24 -35 -24 -1 0
-8 14 -15 30 -13 32 -19 34 -69 24 -30 -6 -31 -8 -25 -43 4 -20 9 -40 13 -46
6 -10 21 -72 42 -170 6 -27 14 -54 19 -60 4 -5 10 -31 13 -57 4 -26 11 -56 16
-65 6 -10 13 -38 16 -63 3 -25 12 -53 20 -63 12 -17 18 -18 49 -7 54 17 53 9
11 165 -40 150 -49 214 -37 263 22 87 111 139 217 129 42 -4 54 -10 82 -42 17
-20 35 -51 39 -68 3 -17 10 -38 15 -47 4 -8 11 -36 14 -62 3 -26 10 -50 16
-53 5 -4 9 -20 9 -36 0 -16 7 -46 15 -66 8 -19 15 -44 15 -56 0 -17 5 -19 41
-14 23 3 46 10 50 14 9 9 0 58 -37 193 -8 30 -20 77 -25 103 -20 98 -71 182
-128 211 -35 19 -126 27 -178 16z"/>
<path d="M6296 7078 c-3 -13 -6 -36 -6 -51 0 -16 -4 -36 -10 -46 -5 -10 -14
-43 -19 -72 -11 -58 -25 -123 -46 -209 -7 -30 -21 -91 -30 -135 -9 -44 -21
-95 -26 -112 -6 -18 -14 -54 -19 -80 -5 -27 -12 -60 -16 -75 -6 -29 10 -50 61
-78 21 -12 67 11 320 159 50 30 108 63 130 76 170 95 283 160 299 170 17 12
15 15 -24 44 l-42 30 -42 -23 c-22 -13 -88 -50 -146 -83 -58 -33 -166 -95
-240 -138 -197 -114 -184 -108 -189 -88 -1 9 4 44 12 77 9 34 23 95 32 136 9
41 23 104 31 140 8 36 22 97 30 135 9 39 22 93 30 121 19 69 19 68 -24 98 -47
32 -58 33 -66 4z"/>
<path d="M3361 7021 c-22 -17 -23 -21 -12 -51 6 -18 11 -35 11 -37 0 -2 -22
-1 -48 3 -118 15 -276 -81 -324 -199 -21 -52 -23 -143 -3 -181 8 -15 15 -34
15 -40 0 -20 68 -94 118 -129 44 -30 52 -32 132 -32 74 0 92 4 142 29 67 34
118 84 151 149 l24 47 26 -52 c20 -40 27 -68 27 -113 0 -58 -1 -60 -52 -109
-62 -59 -159 -99 -245 -100 l-53 -1 0 -47 0 -48 46 0 c96 0 242 60 321 133 51
46 93 125 93 173 0 56 -39 159 -90 239 -11 17 -23 37 -27 45 -4 8 -23 42 -43
75 -20 33 -51 87 -69 120 -86 157 -92 163 -140 126z m33 -192 c34 -20 54 -44
88 -106 31 -57 21 -109 -35 -194 -29 -43 -106 -79 -171 -79 -71 0 -122 25
-166 80 -30 37 -33 48 -34 109 0 80 21 121 86 168 56 39 62 41 135 42 45 1 71
-4 97 -20z"/>
<path d="M2509 6754 c-15 -19 -17 -80 -3 -94 5 -5 24 -12 41 -16 55 -11 92 52
63 107 -14 24 -81 27 -101 3z"/>
<path d="M5495 6695 c-52 -51 -11 -134 60 -121 39 8 55 31 55 77 0 64 -69 91
-115 44z"/>
<path d="M2678 6561 c-25 -23 -31 -33 -23 -44 6 -8 73 -86 150 -172 77 -87
154 -174 170 -195 48 -61 61 -65 101 -35 19 15 34 30 32 34 -3 8 -30 39 -192
225 -158 182 -190 216 -198 216 -4 0 -22 -13 -40 -29z"/>
<path d="M7073 6499 c-29 -11 -35 -77 -11 -106 13 -16 80 -17 96 -1 16 16 15
83 0 95 -21 16 -61 22 -85 12z"/>
<path d="M2438 6313 c-97 -74 -168 -184 -168 -261 0 -68 86 -162 149 -162 38
0 107 38 186 103 44 36 92 68 107 72 59 15 95 -25 82 -91 -9 -47 -99 -143
-168 -178 -31 -16 -56 -32 -56 -36 0 -25 24 -70 38 -70 42 0 166 92 217 161
48 65 70 139 60 201 -7 39 -44 88 -82 107 -29 14 -85 14 -120 -1 -15 -7 -59
-37 -97 -67 -101 -81 -118 -91 -153 -91 -98 0 -77 142 32 222 24 18 56 41 69
51 22 15 24 21 15 45 -10 25 -26 42 -41 42 -4 0 -35 -21 -70 -47z"/>
<path d="M6899 6323 c-8 -9 -90 -85 -184 -168 -93 -84 -181 -164 -193 -178
-23 -24 -23 -26 -6 -51 30 -47 46 -48 89 -8 22 20 71 64 110 97 38 33 109 98
158 145 49 47 95 89 103 93 19 11 18 23 -8 57 -24 34 -49 38 -69 13z"/>
<path d="M6985 6015 c-27 -8 -61 -20 -75 -27 -37 -18 -120 -88 -120 -101 0 -6
-7 -18 -15 -27 -8 -9 -22 -45 -31 -81 -17 -62 -17 -66 4 -131 11 -37 35 -88
52 -113 32 -47 102 -95 138 -95 11 0 23 -4 26 -9 6 -10 -20 -35 -47 -44 -17
-6 -16 -9 5 -47 13 -22 28 -40 35 -40 6 0 48 23 93 51 45 27 99 60 120 72 21
12 142 85 268 162 l231 139 -21 36 c-33 56 -34 56 -92 17 -31 -21 -59 -37 -62
-37 -4 0 -21 -10 -38 -23 -17 -12 -50 -33 -73 -45 l-43 -23 0 78 c0 70 -4 84
-33 138 -41 73 -108 127 -187 149 -66 19 -69 19 -135 1z m162 -114 c28 -13 53
-36 77 -72 32 -47 36 -61 36 -115 0 -93 -50 -159 -156 -205 -44 -19 -55 -20
-102 -9 -58 13 -108 50 -143 106 -33 54 -31 149 4 202 27 41 96 95 132 105 44
11 112 5 152 -12z"/>
<path d="M2164 5811 c-53 -9 -125 -52 -158 -95 -49 -65 -66 -115 -66 -200 0
-96 23 -149 90 -209 99 -88 227 -112 333 -63 127 58 213 215 192 352 -6 45 -7
45 -43 42 l-37 -3 -5 -75 c-6 -89 -25 -133 -77 -180 -55 -51 -76 -60 -135 -60
-91 0 -97 -22 80 320 34 66 62 123 62 126 0 3 -19 13 -42 23 -50 22 -136 31
-194 22z m124 -96 c5 -4 -141 -298 -164 -329 -7 -10 -20 -16 -28 -13 -25 10
-69 89 -74 134 -9 86 57 190 135 211 35 10 120 8 131 -3z"/>
<path d="M7275 5321 c-66 -17 -135 -63 -170 -116 -47 -72 -49 -79 -50 -175 0
-87 3 -101 32 -161 39 -80 114 -149 139 -128 40 33 38 49 -9 98 -25 25 -49 58
-52 74 -4 15 -11 30 -16 33 -15 9 -10 123 7 157 22 44 74 97 96 97 12 0 21
-13 28 -42 6 -24 24 -86 40 -138 15 -52 35 -122 45 -155 9 -33 23 -74 30 -92
l14 -32 43 15 c100 35 168 106 194 200 16 62 16 70 1 135 -21 86 -54 139 -115
184 -67 49 -170 67 -257 46z m178 -105 c49 -21 89 -70 109 -134 16 -53 17 -60
1 -102 -20 -56 -28 -66 -77 -101 -43 -32 -56 -30 -56 6 0 14 -6 42 -14 62 -7
21 -21 67 -31 103 -10 36 -24 82 -31 103 -24 65 -20 77 26 77 22 0 55 -6 73
-14z"/>
<path d="M1800 5191 c-97 -20 -219 -118 -254 -202 -10 -24 -22 -52 -28 -63
-10 -19 -19 -63 -39 -176 -6 -36 -16 -82 -22 -104 -6 -21 -11 -59 -11 -84 -1
-47 -1 -47 39 -54 22 -4 76 -14 120 -23 44 -8 103 -19 130 -24 28 -5 88 -16
135 -26 83 -16 104 -20 258 -46 85 -15 87 -14 97 66 3 27 13 82 21 120 9 39
20 89 25 113 20 92 4 237 -33 303 -49 88 -125 153 -213 183 -58 19 -174 28
-225 17z m179 -117 c63 -18 127 -66 166 -124 26 -40 30 -54 33 -139 4 -86 0
-122 -34 -290 -5 -22 -9 -23 -47 -17 -46 7 -147 25 -382 71 -44 9 -97 18 -118
22 -21 3 -41 12 -44 20 -6 16 21 171 45 252 21 72 91 166 139 187 104 45 143
48 242 18z"/>
<path d="M7389 4656 c-124 -28 -203 -112 -228 -246 -9 -47 -9 -73 -2 -93 6
-16 11 -40 11 -54 0 -82 118 -190 235 -214 126 -25 262 41 330 161 17 29 20
53 20 140 0 89 -4 111 -23 147 -49 93 -112 139 -220 162 -30 6 -57 11 -60 10
-4 -1 -32 -7 -63 -13z m169 -115 c39 -20 67 -47 95 -93 23 -36 24 -170 2 -188
-8 -7 -15 -18 -15 -24 0 -14 -29 -39 -72 -63 -24 -13 -55 -18 -114 -18 -71 0
-86 3 -122 28 -58 38 -82 89 -82 176 0 63 3 73 33 112 64 84 187 115 275 70z"/>
<path d="M2195 3985 c-28 -8 -96 -24 -140 -34 -200 -42 -236 -53 -288 -94 -43
-33 -55 -53 -72 -119 -25 -92 23 -225 101 -284 l36 -28 -33 -11 c-29 -10 -34
-17 -37 -46 -4 -55 8 -64 65 -50 101 26 120 30 198 46 44 9 94 20 110 25 17 4
70 16 119 26 49 11 91 24 93 30 5 14 -15 94 -24 94 -4 0 -20 -4 -37 -10 -83
-26 -264 -60 -322 -60 -51 0 -73 5 -96 21 -60 43 -86 111 -80 211 3 35 60 91
109 106 21 6 70 18 108 27 175 39 245 57 245 65 0 3 -7 23 -14 45 -14 39 -21
46 -41 40z"/>
<path d="M7097 3655 c-9 -20 -17 -44 -17 -53 0 -10 -4 -22 -9 -27 -4 -6 -20
-46 -34 -90 -14 -44 -44 -131 -66 -194 -23 -63 -41 -118 -41 -123 0 -14 69
-43 79 -32 5 5 30 72 56 149 25 77 50 147 55 156 5 9 13 34 19 55 19 69 17 69
137 29 60 -20 115 -40 122 -44 12 -7 1 -54 -35 -151 -34 -91 -73 -208 -73
-222 0 -12 11 -19 35 -24 20 -3 38 -4 42 -1 6 7 50 127 63 172 9 33 28 89 41
120 5 11 13 32 18 46 l9 26 112 -38 c62 -21 115 -41 118 -44 6 -6 -23 -107
-41 -140 -5 -11 -14 -33 -18 -50 -8 -32 -26 -87 -41 -120 -4 -11 -14 -41 -22
-67 l-14 -47 33 -11 c17 -6 38 -8 46 -5 8 3 26 40 40 83 14 42 52 155 84 249
32 95 56 175 53 178 -6 6 -38 18 -308 112 -223 77 -417 143 -422 143 -2 0 -12
-16 -21 -35z"/>
<path d="M2190 3271 c-97 -21 -171 -79 -216 -168 -23 -45 -29 -70 -29 -123 0
-37 5 -78 11 -91 6 -13 16 -35 21 -49 21 -52 91 -127 144 -154 73 -36 181 -37
254 -2 66 31 127 86 156 138 19 36 23 58 24 133 0 86 -2 93 -38 157 -36 65
-82 110 -142 140 -37 19 -138 29 -185 19z m146 -107 c52 -21 81 -49 110 -106
35 -69 32 -126 -8 -189 -83 -127 -259 -149 -347 -42 -17 21 -38 59 -47 85 -14
43 -14 53 0 100 18 62 69 117 136 147 56 24 106 26 156 5z"/>
<path d="M6902 3013 c-63 -19 -142 -85 -175 -147 -15 -29 -23 -65 -27 -124
l-5 -84 -37 26 -37 25 -22 -35 c-11 -19 -19 -41 -16 -48 3 -8 37 -36 76 -62
154 -106 400 -276 483 -333 99 -70 125 -75 151 -30 9 17 15 35 12 39 -3 5 -57
44 -120 86 -138 92 -147 101 -108 109 123 25 223 155 223 288 0 131 -97 249
-240 291 -65 19 -89 19 -158 -1z m116 -94 c62 -16 138 -71 162 -120 13 -25 20
-58 20 -96 0 -50 -5 -65 -36 -110 -49 -71 -104 -98 -185 -90 -47 4 -69 12
-108 42 -72 52 -93 92 -93 170 0 110 69 188 190 214 2 1 24 -4 50 -10z"/>
<path d="M2639 2697 c-42 -34 -144 -115 -228 -180 l-151 -119 31 -39 c17 -21
33 -39 36 -39 2 0 95 72 206 161 111 88 215 170 231 183 l30 22 -28 37 c-16
20 -33 37 -40 36 -6 0 -45 -28 -87 -62z"/>
<path d="M2816 2566 c-23 -36 -20 -44 18 -60 41 -17 76 -64 76 -103 0 -22 -25
-54 -128 -161 -70 -73 -132 -132 -138 -132 -5 0 -36 23 -68 51 l-58 52 -26
-26 -26 -27 57 -58 c31 -32 57 -62 57 -67 0 -6 -18 -27 -40 -49 -22 -21 -40
-42 -40 -47 0 -4 16 -20 36 -35 l35 -27 43 42 c38 37 46 41 65 32 11 -6 25
-20 31 -31 15 -28 33 -25 57 9 l22 28 -34 33 -34 33 26 31 c14 17 74 81 133
142 117 120 139 160 126 228 -8 43 -60 114 -101 137 -55 31 -71 32 -89 5z"/>
<path d="M6422 2495 c-13 -13 -22 -31 -20 -39 4 -17 317 -345 370 -387 l37
-30 32 29 33 29 -32 39 c-45 57 -376 384 -388 384 -5 0 -19 -11 -32 -25z"/>
<path d="M2102 2290 c-44 -41 -15 -120 43 -120 32 0 65 33 65 64 0 32 -37 76
-64 76 -12 0 -32 -9 -44 -20z"/>
<path d="M6131 2254 c-28 -15 -60 -38 -69 -53 -9 -14 -22 -32 -29 -39 -18 -19
-16 -29 9 -46 30 -22 55 -20 63 4 7 23 65 60 94 60 12 0 31 -5 42 -11 20 -10
229 -284 229 -300 0 -4 -27 -27 -60 -51 -64 -45 -70 -59 -41 -97 l18 -23 49
37 c78 60 88 62 118 29 14 -16 28 -37 31 -46 9 -25 24 -22 67 10 l36 28 -40
53 c-22 29 -38 54 -36 55 1 1 20 15 40 30 36 27 37 29 22 51 -22 34 -42 38
-71 15 -14 -11 -32 -20 -39 -20 -8 0 -65 69 -128 153 -147 197 -188 219 -305
161z"/>
<path d="M3180 2210 c-91 -18 -161 -73 -209 -162 -28 -51 -31 -66 -31 -143 0
-100 17 -142 83 -209 62 -61 127 -89 220 -94 68 -4 84 -1 132 22 62 31 126 99
155 164 28 62 27 173 -1 237 -55 125 -220 212 -349 185z m159 -110 c87 -44
131 -136 109 -232 -10 -43 -22 -63 -68 -110 -48 -48 -64 -57 -105 -64 -125
-18 -245 81 -245 203 0 59 47 141 105 185 44 34 56 38 108 38 38 0 71 -7 96
-20z"/>
<path d="M5785 2041 c-101 -18 -200 -100 -237 -198 -52 -138 21 -317 157 -383
140 -68 327 -5 411 138 25 42 28 57 28 137 1 100 -12 139 -70 210 -60 77 -178
115 -289 96z m145 -106 c65 -34 120 -127 120 -205 0 -138 -137 -238 -266 -194
-56 18 -86 42 -122 99 -22 34 -26 52 -27 117 0 71 2 79 31 115 68 84 178 112
264 68z"/>
<path d="M6950 1993 c-43 -18 -59 -79 -28 -109 38 -38 118 -7 118 45 -1 47
-48 81 -90 64z"/>
<path d="M3705 1924 c-3 -16 -10 -43 -15 -60 -6 -16 -14 -50 -20 -75 -17 -79
-39 -172 -55 -239 -9 -36 -20 -83 -25 -105 -5 -22 -21 -87 -35 -143 -15 -57
-23 -107 -19 -112 5 -4 25 -10 43 -14 39 -7 35 -11 334 304 133 139 155 158
161 138 3 -7 14 -47 26 -88 12 -41 25 -84 29 -95 5 -11 16 -47 26 -80 9 -33
23 -78 30 -100 8 -22 16 -55 20 -72 4 -18 11 -35 16 -38 5 -4 9 -16 9 -28 0
-12 9 -40 19 -62 14 -32 26 -43 55 -52 20 -6 38 -8 40 -5 2 4 11 39 20 77 9
39 21 86 26 105 9 37 61 252 86 360 8 36 22 88 30 116 8 28 14 64 14 81 0 28
-3 31 -37 36 -48 6 -61 -7 -73 -69 -19 -103 -33 -160 -46 -197 -8 -20 -14 -47
-14 -60 0 -12 -7 -40 -15 -62 -8 -22 -14 -56 -15 -75 0 -19 -7 -43 -14 -53
-13 -17 -15 -17 -30 5 -9 12 -16 33 -16 46 0 12 -7 39 -15 59 -8 19 -15 42
-15 50 0 8 -6 29 -13 46 -13 31 -18 47 -68 211 -18 60 -30 81 -48 89 -22 11
-36 -2 -222 -193 -109 -113 -199 -198 -199 -189 0 9 4 29 9 45 5 16 16 63 25
104 10 41 23 98 31 125 30 115 67 277 64 280 -2 2 -25 6 -51 10 -46 7 -47 6
-53 -21z"/>
<path d="M5283 1863 c-27 -5 -29 -29 -9 -99 27 -94 38 -160 43 -250 l4 -90
-40 -42 c-23 -24 -57 -46 -81 -53 l-41 -13 7 -40 c9 -55 10 -56 46 -45 47 13
109 59 132 98 17 30 21 32 27 15 4 -10 8 -30 8 -43 1 -22 4 -23 46 -18 26 2
48 7 52 10 5 6 -2 43 -32 167 -7 30 -21 91 -30 135 -9 44 -23 107 -31 140 -7
33 -16 77 -19 98 -6 39 -16 43 -82 30z"/>
<path d="M4872 1777 c-29 -30 -28 -62 3 -92 29 -30 75 -33 98 -7 24 27 23 98
-2 112 -33 17 -76 12 -99 -13z"/>
</g>
</svg>
