<?xml version="1.0" standalone="no"?>
<!DOCTYPE svg PUBLIC "-//W3C//DTD SVG 20010904//EN"
 "http://www.w3.org/TR/2001/REC-SVG-20010904/DTD/svg10.dtd">
<svg version="1.0" xmlns="http://www.w3.org/2000/svg"
 width="546.000000pt" height="457.000000pt" viewBox="0 0 546.000000 457.000000"
 preserveAspectRatio="xMidYMid meet">

<g transform="translate(0.000000,457.000000) scale(0.100000,-0.100000)"
fill="#000000" stroke="none">
<path d="M2978 3838 c1 -84 5 -186 8 -225 l6 -73 40 -10 c22 -6 44 -10 49 -8
18 6 260 351 252 359 -5 5 -22 11 -39 15 -30 6 -33 3 -125 -130 -52 -74 -97
-136 -101 -136 -5 0 -8 76 -8 169 l0 169 -31 11 c-55 19 -54 22 -51 -141z"/>
<path d="M2514 3899 c-93 -27 -131 -171 -70 -264 49 -74 198 -78 253 -6 17 22
16 27 -12 45 -23 15 -25 15 -49 -9 -33 -33 -84 -34 -114 -2 -12 13 -22 30 -22
39 0 16 4 17 180 31 23 2 25 6 23 50 -2 58 -23 94 -68 113 -38 16 -75 17 -121
3z m94 -65 c51 -36 16 -64 -80 -64 -36 0 -39 2 -33 23 15 51 70 71 113 41z"/>
<path d="M2183 3835 c-17 -7 -39 -28 -48 -46 -16 -30 -18 -31 -28 -13 -5 10
-11 20 -12 22 -1 1 -16 -3 -34 -9 -22 -8 -30 -16 -26 -28 2 -9 24 -74 49 -146
42 -127 44 -130 71 -128 16 1 32 6 36 10 5 5 -6 52 -23 105 -35 111 -33 140
13 163 57 30 73 12 123 -142 l27 -82 32 11 c18 6 34 12 36 14 1 1 -14 54 -35
116 -53 159 -92 192 -181 153z"/>
<path d="M3420 3821 c-14 -27 -13 -37 6 -55 42 -43 109 10 69 54 -23 25 -61
26 -75 1z"/>
<path d="M1881 3751 c-9 -6 -11 -18 -7 -34 5 -22 2 -27 -29 -37 -51 -17 -95
-72 -95 -119 0 -48 44 -101 84 -101 26 0 35 -13 16 -25 -14 -9 -13 -48 2 -63
7 -7 20 -12 30 -12 22 0 22 1 2 -39 -16 -31 -15 -34 3 -59 30 -41 79 -41 154
-1 76 41 109 82 109 136 0 48 -38 93 -78 93 -14 0 -56 -16 -94 -35 -38 -20
-73 -33 -78 -30 -20 12 -9 34 26 55 46 29 66 61 66 107 0 31 -7 44 -36 69 -32
27 -35 34 -29 67 5 32 3 37 -13 37 -11 0 -25 -4 -33 -9z m32 -153 c19 -25 19
-28 3 -52 -30 -47 -96 -22 -96 35 0 53 58 63 93 17z m165 -215 c4 -27 -35 -66
-78 -82 -23 -8 -34 -6 -50 7 -29 23 -18 44 38 76 55 31 86 30 90 -1z"/>
<path d="M3339 3653 c-23 -43 -57 -106 -76 -140 l-34 -62 32 -16 c40 -21 39
-23 123 137 l67 127 -30 15 c-17 9 -32 16 -35 16 -2 0 -24 -35 -47 -77z"/>
<path d="M2762 3658 c-35 -35 14 -102 57 -79 11 6 23 20 26 32 13 41 -52 78
-83 47z"/>
<path d="M1505 3590 c-36 -40 7 -96 55 -70 27 14 27 65 1 80 -27 14 -35 13
-56 -10z"/>
<path d="M3502 3583 c-60 -29 -112 -112 -112 -176 1 -64 55 -117 120 -117 26
0 31 -3 22 -12 -18 -18 -15 -24 17 -47 l30 -21 133 162 c74 90 137 169 142
176 8 13 -29 52 -49 51 -5 0 -32 -27 -59 -60 l-49 -61 -13 39 c-8 21 -14 39
-14 40 0 1 -15 11 -34 22 -40 25 -89 27 -134 4z m108 -68 c53 -27 52 -88 -1
-143 -42 -43 -73 -50 -107 -25 -42 31 -42 81 -1 128 27 30 54 50 77 54 2 1 16
-6 32 -14z"/>
<path d="M1598 3493 l-27 -28 107 -118 106 -117 27 26 28 27 -49 56 c-27 31
-75 85 -107 119 l-58 64 -27 -29z"/>
<path d="M1485 3366 c-39 -17 -70 -52 -90 -99 -13 -32 -14 -41 -1 -71 28 -66
95 -72 166 -16 42 33 82 37 88 9 5 -25 -44 -76 -79 -83 -23 -4 -30 -10 -25
-22 3 -9 6 -22 6 -30 0 -39 89 0 135 60 41 54 40 109 -3 147 -18 16 -43 29
-56 29 -12 0 -50 -18 -83 -40 -61 -41 -93 -45 -93 -10 0 20 47 70 66 70 9 0
14 12 14 35 0 39 -2 40 -45 21z"/>
<path d="M3772 3310 c-71 -29 -122 -97 -122 -162 0 -71 80 -158 145 -158 22 0
25 4 25 35 0 30 -3 35 -22 35 -28 0 -39 8 -61 40 -22 31 -21 59 2 89 l18 23
63 -86 c35 -47 67 -86 71 -86 17 0 73 57 86 87 34 82 -49 194 -143 192 -22 0
-49 -4 -62 -9z m131 -92 c17 -23 19 -33 11 -55 -5 -15 -16 -29 -24 -30 -20 -4
-95 103 -78 111 30 12 72 0 91 -26z"/>
<path d="M1293 3090 c-48 -29 -76 -92 -70 -154 4 -42 10 -55 45 -87 64 -60
154 -74 216 -34 38 25 80 117 72 157 -10 54 -21 64 -49 49 -20 -11 -23 -20
-23 -61 1 -62 -22 -90 -76 -90 -21 0 -38 2 -38 4 0 2 20 47 45 100 l45 97 -43
19 c-54 25 -84 25 -124 0z m77 -60 c12 -7 10 -18 -15 -69 -16 -34 -32 -61 -36
-61 -14 0 -39 44 -39 68 0 25 41 72 62 72 7 0 20 -4 28 -10z"/>
<path d="M3915 3001 c-78 -36 -110 -96 -93 -175 25 -112 133 -159 239 -103 85
45 110 124 69 214 -35 78 -126 105 -215 64z m148 -83 c26 -31 22 -82 -9 -107
-35 -28 -90 -42 -119 -31 -27 10 -55 47 -55 72 0 27 41 68 85 83 46 16 73 12
98 -17z"/>
<path d="M1117 2766 c-50 -18 -76 -42 -98 -91 -21 -47 -54 -214 -44 -223 4 -4
97 -23 208 -42 l202 -36 13 51 c6 27 15 84 18 125 6 65 4 81 -14 117 -27 52
-64 79 -138 98 -70 18 -97 18 -147 1z m157 -90 c18 -7 43 -26 55 -42 20 -25
22 -37 18 -92 -3 -35 -8 -66 -11 -69 -7 -8 -267 36 -279 46 -15 15 15 114 43
143 24 24 36 28 85 28 30 0 70 -6 89 -14z"/>
<path d="M4100 2646 c-107 -12 -195 -26 -195 -31 1 -47 18 -177 27 -205 26
-84 91 -129 183 -130 99 0 178 38 212 103 18 35 22 113 9 220 -6 54 -11 67
-24 66 -9 -1 -105 -11 -212 -23z m176 -112 c15 -101 -29 -157 -131 -169 -98
-13 -149 30 -162 136 -4 38 -3 49 8 50 8 0 61 7 119 14 169 20 158 22 166 -31z"/>
<path d="M4012 2220 c-93 -22 -144 -153 -92 -237 24 -39 34 -41 55 -9 15 23
15 27 0 50 -31 46 11 126 66 126 23 0 23 -12 4 -113 -21 -108 -21 -105 28
-112 95 -14 157 44 157 147 0 50 -4 62 -30 92 -42 47 -123 72 -188 56z m140
-107 c20 -18 24 -64 8 -94 -7 -12 -21 -19 -41 -19 -30 0 -31 1 -25 38 18 102
22 108 58 75z"/>
<path d="M1275 2184 c-60 -13 -121 -29 -134 -36 -60 -32 -60 -142 0 -176 34
-20 37 -32 8 -32 -19 0 -21 -4 -16 -36 3 -20 7 -38 9 -39 2 -2 72 11 155 29
148 30 153 32 153 56 0 49 -8 51 -114 31 -101 -20 -118 -19 -148 7 -21 18 -24
75 -5 90 6 5 59 19 116 31 58 12 106 23 108 25 6 6 -8 76 -16 75 -3 0 -55 -11
-116 -25z"/>
<path d="M3876 1910 c-69 -61 -84 -167 -29 -210 52 -40 117 -19 162 54 26 41
45 50 65 30 20 -19 3 -69 -30 -91 -22 -14 -23 -16 -8 -44 12 -24 18 -28 34
-19 48 26 87 115 75 172 -4 18 -19 37 -38 49 -53 32 -75 25 -137 -41 -41 -44
-61 -59 -73 -54 -38 14 -5 104 43 119 19 6 19 8 5 36 -19 36 -26 36 -69 -1z"/>
<path d="M1320 1830 c-19 -10 -48 -32 -65 -50 -58 -61 -33 -187 46 -234 83
-49 233 17 254 113 13 62 -28 146 -85 176 -39 20 -108 18 -150 -5z m124 -61
c36 -17 54 -65 35 -98 -17 -30 -84 -71 -117 -71 -32 0 -72 43 -72 78 0 33 29
64 80 86 43 19 43 19 74 5z"/>
<path d="M3740 1660 c-12 -17 -21 -33 -19 -34 2 -2 64 -40 138 -86 103 -63
136 -79 143 -68 23 34 29 51 21 57 -7 6 -217 136 -250 155 -6 3 -21 -7 -33
-24z"/>
<path d="M3553 1621 c-56 -41 -103 -115 -103 -163 0 -30 7 -46 29 -69 47 -47
83 -38 163 39 30 29 52 43 62 39 22 -9 20 -21 -9 -55 -66 -79 -49 -166 38
-187 21 -6 27 -13 27 -34 0 -44 13 -55 40 -33 19 15 21 22 12 39 -10 18 -6 27
33 66 39 38 45 50 45 86 0 60 -43 106 -99 106 -36 0 -40 2 -35 21 9 35 -12 64
-46 64 -27 0 -28 2 -23 35 12 74 -60 99 -134 46z m87 -61 c9 -17 4 -27 -36
-70 -51 -55 -68 -61 -84 -30 -9 17 -7 28 10 55 39 63 89 83 110 45z m176 -195
c33 -50 -20 -104 -71 -71 -27 18 -34 63 -13 84 21 21 66 14 84 -13z"/>
<path d="M1513 1502 c-147 -114 -139 -104 -110 -137 l24 -28 64 48 c35 27 92
71 126 98 l63 48 -22 30 c-12 16 -24 29 -27 28 -3 0 -56 -40 -118 -87z"/>
<path d="M1667 1463 c-9 -21 -9 -27 1 -31 18 -6 42 -32 42 -46 0 -6 -29 -41
-65 -76 l-65 -64 -33 32 -33 32 -19 -20 c-18 -20 -18 -21 13 -53 l32 -33 -27
-26 -27 -27 25 -20 c30 -25 55 -26 68 -3 9 15 13 15 32 4 19 -12 24 -11 42 7
20 20 20 22 4 38 -16 16 -13 21 53 88 93 94 101 127 42 185 -46 47 -68 50 -85
13z"/>
<path d="M4055 1470 c-27 -30 -7 -70 34 -70 45 0 66 44 35 74 -21 22 -47 20
-69 -4z"/>
<path d="M1296 1344 c-30 -30 -10 -74 34 -74 40 0 58 32 35 66 -18 28 -46 31
-69 8z"/>
<path d="M3463 1339 l-33 -21 60 -86 c75 -106 79 -147 18 -178 -28 -15 -31
-14 -52 5 -13 12 -47 57 -77 101 -30 44 -56 80 -59 80 -3 0 -18 -10 -33 -23
l-28 -22 72 -104 c83 -119 115 -141 172 -117 41 17 77 60 77 92 0 28 8 30 25
7 12 -15 15 -15 43 3 l32 20 -86 124 c-47 69 -89 128 -93 132 -3 4 -21 -2 -38
-13z"/>
<path d="M1845 1278 c-123 -68 -141 -232 -33 -298 75 -45 146 -34 203 33 64
75 69 149 12 214 -50 57 -131 80 -182 51z m119 -79 c36 -28 35 -74 -4 -127
-35 -49 -66 -60 -109 -38 -40 21 -49 56 -25 107 33 75 87 98 138 58z"/>
<path d="M2135 1138 c-2 -7 -26 -100 -53 -206 l-48 -192 40 -11 c23 -5 46 -11
51 -13 8 -3 141 188 185 264 5 8 11 12 14 9 3 -3 10 -70 16 -150 15 -196 11
-184 67 -197 27 -6 51 -8 54 -4 10 12 104 400 98 406 -3 3 -19 8 -35 12 l-30
6 -34 -136 c-32 -125 -50 -167 -50 -116 0 29 -22 275 -25 278 -1 1 -16 7 -33
11 -30 9 -31 9 -113 -115 -45 -68 -85 -124 -89 -124 -4 0 9 61 28 135 19 74
33 137 31 139 -2 2 -19 7 -37 11 -23 5 -33 3 -37 -7z"/>
<path d="M3074 1132 c-44 -21 -84 -65 -84 -92 0 -22 52 -38 59 -19 10 31 51
59 86 59 33 0 75 -27 75 -49 0 -5 -42 -23 -92 -41 -51 -18 -96 -36 -101 -40
-4 -3 4 -29 18 -57 35 -69 76 -90 147 -73 64 16 113 63 123 119 9 55 -16 129
-60 171 -43 42 -109 50 -171 22z m156 -182 c0 -38 -31 -70 -68 -70 -29 0 -71
34 -58 47 5 6 101 46 124 52 1 1 2 -12 2 -29z"/>
<path d="M2856 1072 c-3 -5 1 -48 8 -96 7 -48 11 -98 8 -112 -5 -29 -37 -54
-68 -54 -16 0 -23 -7 -26 -30 -3 -17 -2 -32 0 -35 15 -14 57 -2 84 25 28 29
30 29 35 10 4 -17 12 -20 37 -18 29 3 31 5 30 43 0 22 -9 93 -19 158 l-18 117
-33 0 c-18 0 -35 -4 -38 -8z"/>
</g>
</svg>
